<mxfile host="app.diagrams.net" modified="2024-05-31T06:34:08.655Z" agent="Mozilla/5.0 (Windows NT 10.0; Win64; x64) AppleWebKit/537.36 (KHTML, like Gecko) Chrome/125.0.0.0 Safari/537.36" etag="-3cfPDbsorGNTfJTtTTM" version="24.4.10" type="github">
  <diagram name="第 1 页" id="Ep0YGoqNgpDX50HDhVrA">
    <mxGraphModel dx="1050" dy="522" grid="1" gridSize="13" guides="1" tooltips="1" connect="1" arrows="1" fold="1" page="1" pageScale="1" pageWidth="827" pageHeight="1169" math="0" shadow="0">
      <root>
        <mxCell id="0" />
        <mxCell id="1" parent="0" />
        <mxCell id="O3-8xHCt9tBEg5hzjREE-3" style="edgeStyle=orthogonalEdgeStyle;rounded=0;orthogonalLoop=1;jettySize=auto;html=1;entryX=0.5;entryY=0;entryDx=0;entryDy=0;" edge="1" parent="1" source="O3-8xHCt9tBEg5hzjREE-1" target="O3-8xHCt9tBEg5hzjREE-2">
          <mxGeometry relative="1" as="geometry" />
        </mxCell>
        <mxCell id="O3-8xHCt9tBEg5hzjREE-1" value="&lt;font style=&quot;font-size: 16px;&quot;&gt;开始&lt;/font&gt;" style="ellipse;whiteSpace=wrap;html=1;" vertex="1" parent="1">
          <mxGeometry x="130" y="26" width="120" height="80" as="geometry" />
        </mxCell>
        <mxCell id="O3-8xHCt9tBEg5hzjREE-4" style="edgeStyle=orthogonalEdgeStyle;rounded=0;orthogonalLoop=1;jettySize=auto;html=1;exitX=0.5;exitY=1;exitDx=0;exitDy=0;entryX=0.5;entryY=0;entryDx=0;entryDy=0;" edge="1" parent="1" source="O3-8xHCt9tBEg5hzjREE-2" target="O3-8xHCt9tBEg5hzjREE-5">
          <mxGeometry relative="1" as="geometry">
            <mxPoint x="190" y="260" as="targetPoint" />
          </mxGeometry>
        </mxCell>
        <mxCell id="O3-8xHCt9tBEg5hzjREE-2" value="&lt;font style=&quot;font-size: 16px;&quot;&gt;输入通报信息&lt;/font&gt;" style="rounded=0;whiteSpace=wrap;html=1;" vertex="1" parent="1">
          <mxGeometry x="130" y="130" width="120" height="60" as="geometry" />
        </mxCell>
        <mxCell id="O3-8xHCt9tBEg5hzjREE-8" style="edgeStyle=orthogonalEdgeStyle;rounded=0;orthogonalLoop=1;jettySize=auto;html=1;exitX=0.5;exitY=1;exitDx=0;exitDy=0;entryX=0.5;entryY=0;entryDx=0;entryDy=0;" edge="1" parent="1" source="O3-8xHCt9tBEg5hzjREE-5" target="O3-8xHCt9tBEg5hzjREE-7">
          <mxGeometry relative="1" as="geometry" />
        </mxCell>
        <mxCell id="O3-8xHCt9tBEg5hzjREE-5" value="&lt;font style=&quot;font-size: 16px;&quot;&gt;选择二级单位&lt;/font&gt;" style="rounded=0;whiteSpace=wrap;html=1;" vertex="1" parent="1">
          <mxGeometry x="130" y="221" width="120" height="60" as="geometry" />
        </mxCell>
        <mxCell id="O3-8xHCt9tBEg5hzjREE-17" style="edgeStyle=orthogonalEdgeStyle;rounded=0;orthogonalLoop=1;jettySize=auto;html=1;exitX=0;exitY=0.5;exitDx=0;exitDy=0;entryX=0;entryY=0.5;entryDx=0;entryDy=0;fontSize=16;" edge="1" parent="1" source="O3-8xHCt9tBEg5hzjREE-7" target="O3-8xHCt9tBEg5hzjREE-2">
          <mxGeometry relative="1" as="geometry">
            <mxPoint x="98" y="160" as="targetPoint" />
            <mxPoint x="98" y="339" as="sourcePoint" />
            <Array as="points">
              <mxPoint x="78" y="339" />
              <mxPoint x="78" y="160" />
            </Array>
          </mxGeometry>
        </mxCell>
        <mxCell id="O3-8xHCt9tBEg5hzjREE-18" value="&lt;font style=&quot;font-size: 16px;&quot;&gt;信息有误&lt;/font&gt;" style="edgeLabel;html=1;align=center;verticalAlign=middle;resizable=0;points=[];" vertex="1" connectable="0" parent="O3-8xHCt9tBEg5hzjREE-17">
          <mxGeometry x="0.0064" y="1" relative="1" as="geometry">
            <mxPoint as="offset" />
          </mxGeometry>
        </mxCell>
        <mxCell id="O3-8xHCt9tBEg5hzjREE-19" style="edgeStyle=orthogonalEdgeStyle;rounded=0;orthogonalLoop=1;jettySize=auto;html=1;exitX=1;exitY=0.5;exitDx=0;exitDy=0;" edge="1" parent="1" source="O3-8xHCt9tBEg5hzjREE-7" target="O3-8xHCt9tBEg5hzjREE-13">
          <mxGeometry relative="1" as="geometry" />
        </mxCell>
        <mxCell id="O3-8xHCt9tBEg5hzjREE-20" value="&lt;font style=&quot;font-size: 16px;&quot;&gt;信息正确&lt;/font&gt;" style="edgeLabel;html=1;align=center;verticalAlign=middle;resizable=0;points=[];" vertex="1" connectable="0" parent="O3-8xHCt9tBEg5hzjREE-19">
          <mxGeometry relative="1" as="geometry">
            <mxPoint as="offset" />
          </mxGeometry>
        </mxCell>
        <mxCell id="O3-8xHCt9tBEg5hzjREE-7" value="&lt;font style=&quot;font-size: 16px;&quot;&gt;检查输入信息&lt;/font&gt;" style="rhombus;whiteSpace=wrap;html=1;" vertex="1" parent="1">
          <mxGeometry x="130" y="299" width="120" height="80" as="geometry" />
        </mxCell>
        <mxCell id="O3-8xHCt9tBEg5hzjREE-22" style="edgeStyle=orthogonalEdgeStyle;rounded=0;orthogonalLoop=1;jettySize=auto;html=1;exitX=0.5;exitY=0;exitDx=0;exitDy=0;entryX=0.5;entryY=1;entryDx=0;entryDy=0;" edge="1" parent="1" source="O3-8xHCt9tBEg5hzjREE-13" target="O3-8xHCt9tBEg5hzjREE-16">
          <mxGeometry relative="1" as="geometry" />
        </mxCell>
        <mxCell id="O3-8xHCt9tBEg5hzjREE-13" value="&lt;font style=&quot;font-size: 16px;&quot;&gt;通报发布&lt;/font&gt;" style="rounded=0;whiteSpace=wrap;html=1;verticalAlign=middle;" vertex="1" parent="1">
          <mxGeometry x="351" y="306.5" width="117" height="65" as="geometry" />
        </mxCell>
        <mxCell id="O3-8xHCt9tBEg5hzjREE-16" value="&lt;font style=&quot;font-size: 16px;&quot;&gt;结束&lt;/font&gt;" style="ellipse;whiteSpace=wrap;html=1;" vertex="1" parent="1">
          <mxGeometry x="354" y="190" width="120" height="80" as="geometry" />
        </mxCell>
      </root>
    </mxGraphModel>
  </diagram>
</mxfile>
